<?xml version="1.0" encoding="utf-8"?>
<!-- Generator: Adobe Illustrator 16.0.4, SVG Export Plug-In . SVG Version: 6.00 Build 0)  -->
<!DOCTYPE svg PUBLIC "-//W3C//DTD SVG 1.1//EN" "http://www.w3.org/Graphics/SVG/1.1/DTD/svg11.dtd">
<svg version="1.1" id="Layer_1" xmlns="http://www.w3.org/2000/svg" xmlns:xlink="http://www.w3.org/1999/xlink" x="0px" y="0px"
	 width="851.578px" height="792px" viewBox="0 0 851.578 792" enable-background="new 0 0 851.578 792" xml:space="preserve">
<polyline points="387.912,451.445 409.891,463.883 372.447,481.652 "/>
<path d="M166.584,556.928c0,0,21.447-37.684,29.266-57.928l-16.838,2.406"/>
<g>
	<g>
		<path fill="#FFFFFF" d="M741.297,753.494c-1.373,0-2.639-0.854-3.127-2.191l-15.586-42.764c-0.334-0.916-0.25-1.928,0.227-2.775
			c0.478-0.847,1.302-1.442,2.257-1.633c18.416-3.639,35.209-14.637,46.073-30.172c2.654-3.791,4.467-7.492,5.104-10.422
			c0.834-3.822-0.594-4.818-1.062-5.146c-0.073-0.055-0.141-0.09-0.317-0.09c-3.006,0-10.24,7.269-16.623,13.683
			c-14.715,14.78-34.863,35.026-59.689,35.028c0,0-0.002,0-0.004,0c-10.076,0-20.09-3.432-29.764-10.203
			c-19.781-13.848-31.748-43.094-14.91-77.803l-16.99-11.883c-0.723-0.506-1.219-1.279-1.371-2.148
			c-0.151-0.87,0.045-1.766,0.554-2.487l18.25-26.072c1.051-1.508,3.125-1.875,4.635-0.82l17.197,12.031
			c13.831-14.268,29.764-24.037,47.393-29.055c1.711-0.488,3.525,0.469,4.078,2.178l13.74,42.381
			c0.272,0.842,0.198,1.756-0.203,2.543c-0.404,0.789-1.103,1.383-1.945,1.654c-15.518,4.988-30.35,15.924-39.678,29.25
			c-3.351,4.783-3.553,7.162-3.377,8.154c0.084,0.477,0.317,1.118,1.387,1.862c0.062,0.043,0.125,0.086,0.322,0.086
			c3.123,0,10.697-7.358,17.379-13.854c15.008-14.58,35.557-34.551,59.762-34.551c9.529,0,18.875,3.159,27.783,9.396
			c26.619,18.625,32.59,47.74,16.594,80.195l16.367,11.457c1.508,1.055,1.873,3.131,0.82,4.637l-18.242,26.072
			c-0.506,0.723-1.281,1.217-2.15,1.371c-0.868,0.147-1.764-0.048-2.487-0.554l-16.283-11.399
			c-16.057,18.131-34.199,29.25-55.383,33.961C741.781,753.467,741.537,753.494,741.297,753.494L741.297,753.494z M730.139,709.816
			l13.273,36.418c19.377-4.947,36.055-15.892,50.902-33.388c1.112-1.309,3.038-1.557,4.448-0.571l16.015,11.211l14.424-20.615
			l-16.013-11.209c-1.375-0.959-1.819-2.793-1.036-4.277c16.133-30.647,11.448-57.02-13.187-74.256
			c-7.875-5.514-15.713-8.193-23.963-8.193c-21.502,0-40.934,18.882-55.119,32.666c-9.401,9.138-16.195,15.738-22.021,15.738
			c-1.525,0-2.916-0.432-4.134-1.285c-2.299-1.598-3.692-3.674-4.133-6.157c-0.645-3.619,0.822-7.921,4.479-13.14
			c9.496-13.569,24.25-24.856,39.94-30.68l-11.727-36.17c-16.074,5.182-30.611,14.707-43.258,28.352
			c-1.134,1.22-2.986,1.422-4.353,0.467l-16.819-11.766l-14.433,20.613l16.623,11.629c1.371,0.957,1.818,2.787,1.043,4.271
			c-16.881,32.271-6.385,59.354,11.508,71.882c8.529,5.969,17.259,8.995,25.943,8.995c0.002,0,0.002,0,0.004,0
			c22.057-0.002,41.078-19.114,54.969-33.067c9.039-9.08,15.568-15.644,21.345-15.644c1.52,0,2.911,0.437,4.137,1.293
			c2.063,1.445,5.299,4.927,3.752,12.021c-1.053,4.832-3.928,9.639-6.152,12.82C761.984,698.672,742.486,706.725,730.139,709.816
			L730.139,709.816z"/>
	</g>
</g>
<path fill="#212121" d="M796.854,715.004c-17.288,20.369-36.155,30.846-55.555,35.16l-15.588-42.766
	c16.902-3.341,35.338-13.199,48.16-31.531c5.42-7.748,8.514-16.502,3.219-20.205c-13.031-9.127-52.83,75.908-106.396,38.42
	c-20.568-14.4-29.632-43.498-12.55-76.152l-19.354-13.537l18.25-26.069l19.549,13.674c13.644-14.719,29.68-25.049,47.859-30.221
	l13.74,42.379c-17.234,5.541-32.406,17.682-41.386,30.512c-5.711,8.152-4.637,12.246-1.166,14.66
	c12.834,8.988,54.724-74.279,105.238-38.928c26.272,18.385,30.795,47.055,14.223,78.536l18.74,13.115l-18.242,26.072
	L796.854,715.004z"/>
<path fill="#F4CD72" d="M741.297,754.165c-1.648,0-3.171-1.025-3.756-2.631l-15.588-42.767c-0.4-1.098-0.301-2.314,0.271-3.334
	c0.574-1.018,1.563-1.732,2.71-1.96c10.725-2.118,30.914-8.82,45.658-29.899c2.604-3.722,4.377-7.335,4.996-10.18
	c0.71-3.254-0.328-4.125-0.745-4.422c-2.792,0.08-10.185,7.508-16.13,13.48c-14.796,14.866-35.06,35.225-60.162,35.228
	c-0.001,0-0.003,0-0.004,0c-10.219,0-20.361-3.473-30.148-10.321c-19.921-13.947-32.021-43.297-15.378-78.132l-16.523-11.559
	c-0.869-0.607-1.462-1.536-1.646-2.581c-0.184-1.045,0.055-2.121,0.663-2.99l18.25-26.069c1.266-1.809,3.759-2.249,5.569-0.983
	l16.73,11.702c13.823-14.131,29.718-23.82,47.289-28.819c2.065-0.584,4.235,0.565,4.899,2.614l13.74,42.379
	c0.328,1.011,0.239,2.11-0.244,3.056c-0.484,0.946-1.324,1.66-2.336,1.985c-15.384,4.946-30.087,15.786-39.332,28.997
	c-3.333,4.758-3.396,6.939-3.27,7.656c0.042,0.238,0.131,0.729,1.061,1.393c2.922-0.077,10.671-7.605,16.904-13.663
	c15.088-14.659,35.752-34.737,60.229-34.737c9.666,0,19.144,3.2,28.164,9.515c26.782,18.74,32.909,47.952,17.065,80.526
	l15.897,11.126c1.811,1.267,2.25,3.761,0.983,5.569l-18.242,26.072c-0.608,0.869-1.537,1.462-2.582,1.646
	c-1.043,0.181-2.12-0.055-2.989-0.662l-15.796-11.058c-16.054,17.977-34.189,29.021-55.341,33.726
	C741.876,754.134,741.585,754.165,741.297,754.165L741.297,754.165z M731.021,710.283l12.812,35.151
	c18.989-4.982,35.365-15.812,49.971-33.021c1.337-1.573,3.65-1.87,5.345-0.688l15.466,10.825l13.655-19.517l-15.464-10.822
	c-1.649-1.155-2.184-3.356-1.245-5.141c15.955-30.312,11.348-56.376-12.977-73.396c-7.76-5.43-15.472-8.069-23.578-8.069
	c-21.229,0-40.548,18.771-54.652,32.477c-9.871,9.592-16.394,15.928-22.489,15.928c-1.666,0-3.188-0.474-4.521-1.407
	c-2.445-1.701-3.933-3.92-4.406-6.587c-0.677-3.805,0.825-8.269,4.592-13.645c9.449-13.503,24.061-24.764,39.651-30.696
	l-11.321-34.92c-15.707,5.188-29.934,14.58-42.336,27.96c-1.357,1.467-3.589,1.705-5.227,0.56l-16.271-11.383l-13.662,19.518
	l16.074,11.244c1.647,1.151,2.185,3.35,1.252,5.132c-16.692,31.909-6.354,58.663,11.299,71.021
	c8.533,5.973,16.896,8.876,25.561,8.876c0.002,0,0.003,0,0.004,0c21.779-0.002,40.688-19,54.493-32.87
	c9.493-9.538,15.765-15.84,21.819-15.84c1.66,0,3.181,0.477,4.521,1.414c2.2,1.539,5.651,5.239,4.022,12.714
	c-1.077,4.939-3.998,9.829-6.259,13.062C762.693,698.827,743.5,707.034,731.021,710.283L731.021,710.283z"/>
<g>
	<g>
		<defs>
			<path id="SVGID_1_" d="M656.583,687.618c0,0-20.45-23.724-8.998-56.442s30.266-49.079,45.808-58.077s25.068-15.706,29.146-13.527
				c0,0,7.082,0.647,7.663,8.62c0.581,7.972,7.362,21.268,7.362,21.268l24.539-38.445l-5.726-80.98L550.244,28.313L391-32
				c0,0-184,45-186,42S30,91,25,89s-41,203-44,201S-3,516,0,519s60,143,60,143s212,33,215,35s285,32,285,32L656.583,687.618z"/>
		</defs>
		<clipPath id="SVGID_2_">
			<use xlink:href="#SVGID_1_"  overflow="visible"/>
		</clipPath>
		<g clip-path="url(#SVGID_2_)">
			<path fill="#212121" d="M104.533,522.4C-8.064,444.857-14.568,265.768,91.293,205.068
				c105.857-60.697,151.984-30.486,181.939-28.963c15.357,0.781,20.812,7.781,20.023,16.143
				c13.279-3.59,32.926-12.047,50.549-32.057c30.138-34.209-3.02-71.502,0.593-108.926c0,0,2.153,23.275,11.506,33.137
				c0,0-12.197-31.777,5.348-66.402c0,0-13.979,30.875,5.43,66.74c14.922,27.619,13.881,92.615-74.965,113.512
				c-2.527,6.256-7.838,12.65-14.619,17.354c-18.455,12.846-51.279,40.572-78.549,47.232c-27.268,6.654-47.611-10.467-61.959,1.023
				c-14.367,11.5-25.988,20.961-25.988,20.961c-24.758,45.482-32.162,154.367,85.977,214.246c0.633,0.321,1.252,0.604-0.57-0.658
				l-29.752,58.69C146.322,548.381,124.684,536.271,104.533,522.4z"/>
			<path fill="#F4CD72" d="M221.322,190.654c0,0-10.225,5.473-16.271,6.92c0,0,4.871,5.656,11.76,1.977
				C223.469,195.988,221.322,190.654,221.322,190.654z"/>
			<g>
				<path fill="#212121" d="M500.713,115.518c-2.531,24.363-15.871,26.531-17.354,33.029c-1.502,6.504,12.37,11.861,10.967,27.969
					c-1.402,16.123-11.883,23.107-14.961,30.705c-3.082,7.568,18.379,15.996,9.483,42.824
					c-11.276,34.004-31.739,31.232-35.141,36.521c-3.398,5.283,12.615,21.254,3.586,48.293
					c-9.031,27.043-37.066,55.295-43.922,62.24c-6.852,6.941-15.178-0.547-15.178-0.547l-65.732-42.283
					c-8.205-5.273-13.402-7.701-6.365-18.637c7.031-10.936-8.543-21.879-11.475-35.357c-2.922-13.482,9.148-28.93,29.604-43.115
					c34.604-23.975,47.767-37.141,111.402-130.057c12.521-18.279,26.389-44.018,29.801-42.619
					C491.562,86.996,502.605,97.283,500.713,115.518z M156.299,650.992c21.121-12.406,17.559-25.437,22.865-29.5
					c5.291-4.055,15.914,6.361,29.992-1.609c14.09-7.967,16.105-20.404,21.727-26.342c5.617-5.953,22.184,10.08,42.904-9.141
					c26.27-24.359,15.27-41.838,18.662-47.119c3.396-5.279,24.569,2.66,45.438-16.767c20.853-19.43,34.937-56.661,38.412-65.776
					c3.476-9.113-6.795-13.582-6.795-13.582l-65.734-42.279c-8.201-5.273-12.57-9.002-19.602,1.934
					c-7.033,10.938-23.447,1.3-36.93,4.226c-13.475,2.928-22.533,20.326-26.951,44.813c-7.467,41.441-13.992,58.875-72.145,155.32
					c-11.441,18.969-29.102,42.256-26.42,44.783C126.555,654.5,140.492,660.281,156.299,650.992z M658.947,527.088
					c-1.744,11.344-4.06,22.881-6.373,33.9c-0.953,4.545-1.869,8.971-2.771,13.266c0-0.002,0.017-0.006,0.023-0.021
					c3.285-2.13,6.379-4.033,9.26-5.603c0.188-0.117,0.381-0.211,0.576-0.32c1.129-0.6,2.211-1.143,3.277-1.641
					c0.312-0.15,0.637-0.303,0.934-0.447c1.203-0.541,2.391-1.018,3.506-1.403c1.609-0.56,3.129-0.951,4.582-1.273
					c0.459-0.098,0.898-0.141,1.336-0.227c0.969-0.168,1.916-0.297,2.814-0.349c0.467-0.039,0.916-0.065,1.354-0.071
					c0.861-0.009,1.668,0.047,2.451,0.157c0.365,0.041,0.748,0.052,1.082,0.125c1.043,0.189,2.012,0.472,2.912,0.854
					c0.303,0.139,0.555,0.324,0.852,0.473c0.574,0.289,1.152,0.609,1.656,1.004c0.365,0.259,0.699,0.568,1.029,0.882
					c0.36,0.348,0.719,0.725,1.063,1.12c0.322,0.367,0.633,0.765,0.928,1.203c0.271,0.377,0.5,0.808,0.718,1.226
					c1.069,1.93,1.84,4.219,2.325,6.834c0.058,0.301,0.123,0.604,0.164,0.912c0.152,0.916,0.246,1.864,0.339,2.862
					c0.008,0.258,0.022,0.537,0.038,0.812c0.287,4.744-0.12,10.233-1.186,16.282c3.434-2.739,7.078-5.362,10.881-7.809
					c8.244-5.316,17.219-9.82,26.396-13.072c0.561-0.188,1.11-0.418,1.668-0.604c2.821-0.939,5.696-1.695,8.588-2.387
					c0.129-1.957,0.176-3.888,0.172-5.828c-0.002-0.517-0.029-1.047-0.035-1.55c-0.024-1.434-0.098-2.868-0.201-4.266
					c-0.062-0.639-0.1-1.264-0.168-1.879c-0.159-1.369-0.354-2.729-0.567-4.082c-0.101-0.58-0.187-1.182-0.299-1.76
					c-0.371-1.894-0.808-3.785-1.355-5.658c-0.463-1.578-1.062-3.152-1.748-4.699c-0.242-0.521-0.539-1.039-0.795-1.559
					c-0.51-0.994-0.998-1.986-1.596-2.947c-0.377-0.637-0.822-1.246-1.25-1.863c-0.543-0.823-1.092-1.645-1.697-2.438
					c-0.541-0.681-1.107-1.34-1.676-2.004c-0.584-0.675-1.177-1.345-1.814-2.006c-0.682-0.707-1.387-1.408-2.125-2.082
					c-0.578-0.548-1.178-1.097-1.789-1.621c-0.856-0.729-1.729-1.433-2.641-2.117c-0.529-0.402-1.09-0.807-1.662-1.201
					c-1.055-0.74-2.111-1.451-3.23-2.141c-0.416-0.261-0.856-0.502-1.301-0.761c-1.295-0.737-2.623-1.469-4-2.133
					c-0.174-0.098-0.383-0.17-0.557-0.264c-13.697-6.439-30.883-8.527-48.617-2.902c0,0-0.004,0.011-0.012,0
					c-0.181,1.623-0.349,3.252-0.554,4.894C659.574,522.961,659.26,525.023,658.947,527.088z M739.371,573.775
					c-0.223,3.455-0.646,6.963-1.228,10.5c-0.588,3.637-1.327,7.317-2.192,11.051c-1.014,4.332-2.191,8.729-3.451,13.195
					c-0.113,0.434-0.242,0.864-0.363,1.305c-1.223,4.313-2.516,8.705-3.846,13.172c-0.012,0.029-0.023,0.074-0.027,0.111
					c-0.244,0.844-0.491,1.709-0.752,2.584c-0.967,3.256-1.93,6.543-2.877,9.891c-0.192,0.754-0.305,1.4-0.485,2.129
					c-0.65,2.604-1.101,5.019-1.371,7.289c-0.033,0.266-0.064,0.514-0.097,0.769c-0.186,1.735-0.27,3.379-0.256,4.924
					c0.015,1.606,0.119,3.137,0.328,4.547c0.016,0.108,0.037,0.217,0.057,0.324c0.49,3.055,1.394,5.664,2.634,7.832
					c0.026,0.059,0.071,0.11,0.098,0.166c1.248,2.114,2.764,3.809,4.502,5.127c0.086,0.069,0.185,0.146,0.299,0.223
					c0.543,0.398,1.107,0.775,1.695,1.092c0.117,0.07,0.264,0.14,0.396,0.209c1.018,0.537,2.069,0.972,3.151,1.299
					c0.26,0.074,0.512,0.166,0.783,0.236c0.512,0.125,1.027,0.228,1.545,0.314c0.371,0.063,0.758,0.114,1.137,0.155
					c0.58,0.064,1.175,0.111,1.767,0.129c0.651,0.021,1.28,0.007,1.916-0.028c0.42-0.039,0.84-0.099,1.272-0.15
					c0.47-0.063,0.912-0.147,1.359-0.24c0.389-0.094,0.805-0.151,1.197-0.264c0.715-0.203,1.432-0.428,2.108-0.699
					c-0.879,3.63-1.785,7.324-2.633,10.886c-1.197,5.03-2.316,9.764-3.189,13.459c-0.657,2.854-1.153,5.619-1.532,8.33
					c-0.535,3.766-0.695,7.37-0.627,10.846c-4.132,1.4-7.968,2.037-11.613,2.123c-0.197,0.004-0.396,0.004-0.59-0.004
					c-1.611,0.008-3.172-0.092-4.713-0.31c-0.211-0.026-0.418-0.051-0.597-0.065c-3.424-0.523-6.69-1.525-9.903-2.881
					c-0.136-0.052-0.263-0.123-0.396-0.183c-1.397-0.604-2.785-1.276-4.176-2.002c-0.369-0.188-0.742-0.387-1.104-0.586
					c-1.205-0.646-2.403-1.328-3.602-2.045c-0.367-0.227-0.734-0.432-1.092-0.656c-1.502-0.901-2.979-1.834-4.496-2.805
					c-1.156-0.748-2.223-1.604-3.248-2.51c-0.322-0.279-0.613-0.558-0.92-0.853c-0.764-0.735-1.498-1.524-2.203-2.356
					c-0.369-0.451-0.727-0.894-1.088-1.369c-0.613-0.803-1.188-1.638-1.748-2.508c-0.424-0.664-0.811-1.351-1.213-2.062
					c-0.232-0.426-0.459-0.881-0.688-1.322c-1.457-2.838-2.674-5.897-3.657-9.186c-0.503-1.627-0.941-3.301-1.312-5.006
					c-0.008-0.019-0.012-0.031-0.02-0.062c-0.384-1.69-0.707-3.426-0.972-5.2c-0.01-0.006-0.01-0.019-0.014-0.021
					c0.004-0.012,0.01-0.012,0-0.022c-0.561-3.668-0.92-7.451-1.068-11.318c-0.004-0.014,0.004-0.021,0-0.033
					c-0.08-2.352-0.076-4.729-0.033-7.104c0.019-0.433,0.041-0.884,0.056-1.324c0.067-1.973,0.194-3.943,0.346-5.924
					c0.066-0.547,0.109-1.095,0.164-1.638c0.191-2.002,0.432-3.989,0.715-5.948c0.062-0.418,0.111-0.851,0.185-1.267
					c0.377-2.403,0.813-4.785,1.323-7.117c0.332-1.489,0.697-2.938,1.076-4.383c0.609-2.336,1.258-4.639,2.013-6.836
					c0.594-1.828,1.137-3.602,1.686-5.381c1.328-4.369,2.408-8.58,3.285-12.574c0.279-1.391,0.524-2.748,0.77-4.104
					c3.435-2.74,7.078-5.363,10.881-7.81c8.244-5.315,17.22-9.819,26.396-13.071c0.561-0.188,1.111-0.418,1.668-0.604
					C733.605,575.223,736.48,574.467,739.371,573.775z M700.916,603.086l-0.012,0.016c-0.256,0.191-0.472,0.392-0.734,0.572
					c-0.947,0.736-1.887,1.469-2.803,2.229c-0.357,0.276-0.732,0.571-1.074,0.854c0.342-0.281,0.725-0.572,1.074-0.854
					c0.916-0.761,1.854-1.492,2.803-2.229C700.434,603.492,700.662,603.289,700.916,603.086z M774.76,586.355
					c1.506,0.979,2.98,1.934,4.422,2.918c0.349,0.245,0.691,0.485,1.047,0.731c1.148,0.803,2.271,1.603,3.357,2.43
					c0.332,0.242,0.666,0.509,0.986,0.759c1.231,0.963,2.424,1.944,3.553,2.979c0.111,0.096,0.223,0.185,0.328,0.289
					c2.57,2.348,4.848,4.928,6.727,7.807c0.09,0.173,0.199,0.339,0.314,0.517c0.824,1.311,1.574,2.697,2.234,4.168
					c0.086,0.172,0.166,0.354,0.245,0.522c1.443,3.365,2.451,7.123,2.882,11.464c0.178,1.633,0.274,3.354,0.274,5.174
					c0.004,0.094,0,0.188-0.006,0.272c0.012,1.736-0.072,3.545-0.229,5.447c-0.015,0.002-0.019,0.01-0.021,0.021
					c0.004-0.013,0.008-0.021,0.018-0.013c-0.346,3.935-1.036,8.242-2.125,12.984c-0.596,2.637-1.317,5.414-2.149,8.324
					c-0.021,0.036-0.035,0.077-0.043,0.127c-0.859,2.953-1.857,6.045-2.988,9.311c-0.383,1.088-0.645,2.027-0.984,3.066
					c0,0-0.006,0.014-0.01,0.026c-0.242,0.754-0.5,1.523-0.731,2.271c-0.527,1.731-1.006,3.385-1.422,4.979
					c-0.013,0.015-0.021,0.023-0.019,0.047c-0.594,2.283-1.09,4.412-1.475,6.416c-0.439,2.295-0.736,4.416-0.896,6.361
					c-0.047,0.42-0.088,0.854-0.115,1.248c-0.039,0.717-0.063,1.412-0.063,2.076c-0.019,1.021,0.021,1.984,0.094,2.879l-0.002,0.037
					c0.006,0.207,0.006,0.451,0.037,0.658v0.002c0.131,1.135,0.338,2.145,0.592,3.102c0.072,0.277,0.142,0.555,0.226,0.805
					c0.271,0.896,0.588,1.709,0.971,2.464c0.121,0.211,0.242,0.393,0.356,0.59c0.361,0.598,0.74,1.145,1.179,1.645
					c0.131,0.152,0.244,0.318,0.377,0.472c0.514,0.526,1.08,0.989,1.688,1.424c0.23,0.149,0.451,0.293,0.689,0.44
					c0.615,0.354,1.25,0.688,1.944,0.943c0.248,0.092,0.535,0.164,0.791,0.236c0.544,0.162,1.07,0.301,1.656,0.422
					c0.32,0.057,0.64,0.121,0.984,0.168c0.742,0.106,1.5,0.16,2.289,0.188c0.418,0.007,0.867,0.013,1.295-0.01
					c0.582-0.006,1.153-0.043,1.746-0.078c0.698-0.059,1.414-0.135,2.149-0.237c0.515-0.072,1.013-0.146,1.537-0.244
					c0.037-0.008,0.08-0.019,0.131-0.019c0.521-0.088,1.049-0.188,1.566-0.305c0.795-0.162,1.615-0.353,2.438-0.574
					c0.06,1.105,0,2.291,0.029,3.428c0.025,2.218,0.066,4.419,0.025,6.734c-0.039,1.008-0.078,2.037-0.119,3.062
					c-0.15,3.901-0.394,7.813-0.691,11.581c-1.627,0.841-3.223,1.65-4.811,2.423c-0.072,0.032-0.156,0.062-0.217,0.102
					c-1.394,0.68-2.74,1.33-4.091,1.957c-0.342,0.15-0.686,0.307-1.024,0.467c-1.107,0.49-2.195,0.973-3.258,1.428
					c-0.361,0.152-0.716,0.318-1.066,0.459c-1.262,0.529-2.496,1.021-3.684,1.479c-0.08,0.035-0.193,0.072-0.289,0.102
					c-1.293,0.478-2.543,0.912-3.746,1.302c-0.301,0.1-0.601,0.186-0.91,0.276c-0.875,0.258-1.721,0.506-2.539,0.701
					c-0.375,0.109-0.729,0.197-1.088,0.277c-0.76,0.18-1.482,0.33-2.201,0.44c-0.309,0.049-0.633,0.125-0.936,0.16
					c-0.967,0.137-1.892,0.236-2.769,0.25c-1.803,0.035-3.5-0.047-5.147-0.205c-0.459-0.033-0.906-0.094-1.34-0.152
					c-1.242-0.155-2.437-0.385-3.562-0.631c-0.371-0.094-0.729-0.155-1.1-0.262c-2.902-0.783-5.459-1.963-7.656-3.486
					c-0.205-0.141-0.416-0.299-0.611-0.451c-0.944-0.713-1.836-1.489-2.649-2.35c-0.104-0.117-0.205-0.211-0.304-0.322
					c-1.844-2.041-3.278-4.459-4.313-7.233c-0.049-0.131-0.101-0.279-0.148-0.402c-0.496-1.393-0.908-2.848-1.215-4.412
					c0.004-0.004,0.004-0.008,0.004-0.008l0,0c-0.613-3.227-0.791-6.832-0.553-10.783c0-0.004,0.006-0.012-0.004-0.021
					c-0.002-0.015,0.004-0.027,0.014-0.033c0.107-1.775,0.303-3.633,0.578-5.543c0.031-0.228,0.051-0.424,0.088-0.646
					c0.301-1.996,0.695-4.059,1.185-6.217c0.053-0.197,0.106-0.424,0.145-0.635c1.205-5.111,2.879-12.148,4.598-19.207
					c0.056-0.201,0.091-0.402,0.148-0.6c0.305-1.287,0.607-2.568,0.918-3.828c0-0.01,0.006-0.015,0.01-0.019
					c0.009-0.01,0.015-0.032,0.025-0.057c0.992-4.084,1.973-7.986,2.83-11.391l0.062-0.253c0.146-0.108,0.271-0.202,0.406-0.315
					c-0.133,0.102-0.272,0.209-0.406,0.315c0.043-0.178,0.086-0.327,0.136-0.502c0.207-0.852,0.436-1.674,0.633-2.442
					c0.033-0.158,0.076-0.301,0.131-0.433c0.19-0.782,0.387-1.477,0.553-2.139c0.06-0.182,0.101-0.369,0.158-0.535
					c0.156-0.598,0.297-1.104,0.428-1.594c0.052-0.162,0.105-0.338,0.146-0.479c0.16-0.56,0.309-1.058,0.424-1.425
					c0.246-0.68,0.387-1.414,0.512-2.143c0.035-0.219,0.095-0.418,0.119-0.648c0.008-0.008,0.002-0.024,0.008-0.043
					c0.125-0.951,0.146-1.936,0.117-2.918c-0.006-0.031-0.014-0.063-0.014-0.098c-0.039-0.705-0.119-1.422-0.236-2.133
					c-0.062-0.396-0.178-0.808-0.254-1.213c-0.104-0.438-0.221-0.877-0.354-1.32c-0.132-0.414-0.23-0.812-0.39-1.223
					c-0.229-0.609-0.485-1.195-0.77-1.779c-0.261-0.525-0.541-1.027-0.845-1.533c-0.19-0.324-0.399-0.646-0.6-0.971
					c-0.297-0.431-0.619-0.859-0.951-1.269c-0.168-0.213-0.362-0.401-0.533-0.623c-0.739-0.84-1.569-1.619-2.469-2.311
					c-0.123-0.109-0.244-0.199-0.367-0.291c-0.532-0.404-1.112-0.756-1.694-1.09c-0.119-0.07-0.23-0.131-0.351-0.195
					c-1.903-1.014-4.076-1.691-6.492-1.953c-0.084-0.012-0.153-0.014-0.237-0.01c-2.476-0.244-5.189,0.014-8.166,0.826
					c-0.123,0.041-0.244,0.069-0.371,0.114c-0.99,0.291-2,0.613-3.041,1.039l0,0c1.102-3.799,2.225-7.571,3.342-11.317
					c2.633-8.939,5.137-17.771,6.945-26.562c0.705-3.418,1.281-6.832,1.725-10.25l0.017-0.006c3.387-0.453,6.674-0.602,9.83-0.475
					c0.506,0.026,1.047,0.043,1.538,0.078c0.806,0.073,1.587,0.153,2.363,0.264c1.037,0.139,2.07,0.322,3.084,0.555
					c0.545,0.117,1.068,0.269,1.599,0.402c1.063,0.297,2.096,0.645,3.088,1.037c0.391,0.162,0.766,0.312,1.143,0.473
					C772.379,585.004,773.604,585.617,774.76,586.355z M788.938,679.402c-2.821,2-5.891,4.448-9.196,7.393
					c-1.365,1.219-2.709,2.4-4.16,3.791c-2.496,2.377-4.914,4.584-7.238,6.576c2.342-2.014,4.742-4.199,7.238-6.576
					c0.822-0.797,1.568-1.422,2.365-2.164c0.645-0.584,1.215-1.045,1.844-1.604C783.047,683.914,786.131,681.379,788.938,679.402z
					 M460.68,560.098c-0.032-6.198,0.492-12.83,1.687-19.944c1.108-6.517,2.805-13.453,5.141-20.812
					c-56.793,67.685-81.262,54.763-81.717,43.359c-0.656-16.428,20.897-15.717,34.014-28.045
					c13.109-12.328,19.603-24.763,16.574-38.681c-3.016-13.924-30.807-20.389-50.563-7.155c-8.8,5.897-17.599,14.032-26.302,31.58
					c-11.061,22.276-29.307,62.522,2.652,87.854c18.002,14.262,53.238,20.449,103.771-18.123c-1.145-3.197-2.143-6.627-2.965-10.256
					C461.609,573.877,460.707,567.357,460.68,560.098z M851.158,705.629c0.08-0.047,0.151-0.102,0.227-0.143
					c1.623-1.07,3.191-2.072,4.736-3.092c0.117-0.078,0.25-0.16,0.365-0.259c3.198-2.098,6.198-4.102,8.922-5.963
					c0.151-0.104,0.313-0.205,0.463-0.326c2.66-1.799,5.047-3.455,7.104-4.889c0.134-0.094,0.273-0.197,0.416-0.287
					c1.978-1.387,3.604-2.561,4.861-3.469c0.129-0.088,0.262-0.187,0.375-0.273c0.582-0.409,1.078-0.78,1.459-1.071
					c9.07-6.812,16.824-11.621,16.131-14.781c-0.684-3.158-10.498-3.201-23.471,3.658c-0.346,0.131-0.787,0.312-1.301,0.551
					c-0.15,0.08-0.334,0.176-0.5,0.254c-0.398,0.199-0.812,0.396-1.287,0.654c-0.154,0.088-0.355,0.186-0.525,0.283
					c-0.547,0.303-1.096,0.602-1.729,0.944c-0.093,0.037-0.175,0.09-0.244,0.146c-3.66,2.043-8.572,4.961-14.154,8.147
					C852.561,692.26,851.924,698.98,851.158,705.629z M597.93,433.605c-4.867-0.83-10.33-1.531-16.356-1.562
					c-0.845,3.24-1.769,6.559-2.783,9.963c-3.682,12.248-8.521,25.474-14.672,39.754c-1.89,4.388-3.918,8.892-6.062,13.479
					c0.974-0.65,1.945-1.191,2.935-1.715c0.205-0.115,0.432-0.242,0.637-0.345c0.873-0.432,1.752-0.789,2.625-1.104
					c0.332-0.129,0.686-0.252,1.039-0.365c0.793-0.244,1.602-0.459,2.422-0.611c0.439-0.084,0.896-0.155,1.342-0.213
					c0.756-0.096,1.523-0.168,2.281-0.178c0.549-0.012,1.104,0.014,1.65,0.039c0.713,0.043,1.43,0.1,2.158,0.211
					c0.653,0.105,1.336,0.283,2,0.447c0.663,0.147,1.315,0.287,1.989,0.518c0.845,0.269,1.715,0.656,2.574,1.017
					c0.553,0.241,1.078,0.428,1.648,0.698c1.444,0.72,2.948,1.55,4.481,2.539c1.51,0.972,2.834,2.09,4.041,3.299
					c0.111,0.119,0.254,0.224,0.348,0.349c1.132,1.174,2.089,2.465,2.964,3.842c0.106,0.188,0.237,0.377,0.356,0.572
					c0.82,1.375,1.514,2.852,2.094,4.391c0.093,0.236,0.175,0.469,0.252,0.697c0.56,1.582,1.023,3.256,1.375,5.004
					c0.027,0.205,0.078,0.408,0.107,0.617c0.338,1.819,0.59,3.729,0.732,5.707c0.012,0.082,0.024,0.182,0.024,0.266
					c0.437,6.211-0.024,13.121-0.987,20.473c-0.031,0.183-0.05,0.353-0.086,0.521c0.014,0.035,0.018,0.057,0,0.076
					c0,0.016,0.004,0.033-0.005,0.041c-0.6,4.451-1.381,9.045-2.252,13.742c-0.008,0.016-0.018,0.024-0.004,0.032
					c-0.01,0.007-0.018,0.019-0.014,0.031c-0.849,4.484-1.793,9.055-2.742,13.67c-0.014,0.062-0.018,0.113-0.025,0.178
					c-0.008,0.031-0.02,0.074-0.02,0.111c-2.562,12.316-5.219,24.892-6.644,36.781c-0.008,0.02-0.004,0.043-0.012,0.059
					c-0.207,1.812-0.391,3.603-0.535,5.386c-0.022,0.379-0.063,0.75-0.102,1.129c-0.146,1.823-0.26,3.649-0.318,5.453
					c-0.004,0.135,0.015,0.262,0.015,0.396c-0.066,2.043,0.01,4.043,0.098,6.006c0.109,1.758,0.264,3.486,0.477,5.193
					c0.005,0.028,0.009,0.061,0.017,0.086c2.248,18.449,11.283,33.197,22.828,42.973c0.133,0.131,0.289,0.265,0.438,0.398
					c1.181,0.967,2.392,1.865,3.623,2.748c0.406,0.287,0.808,0.588,1.215,0.852c1.091,0.738,2.183,1.42,3.287,2.072
					c0.588,0.344,1.185,0.686,1.775,1.004c1.004,0.545,2.012,1.037,3.035,1.51c0.727,0.354,1.455,0.664,2.19,0.972
					c0.933,0.387,1.859,0.744,2.787,1.067c0.855,0.304,1.725,0.562,2.57,0.808c0.834,0.244,1.686,0.504,2.524,0.69
					c0.968,0.222,1.941,0.385,2.91,0.558c0.738,0.108,1.488,0.28,2.215,0.344c1.13,0.143,2.234,0.188,3.341,0.227
					c0.598,0.025,1.182,0.088,1.772,0.082c1.676-0.016,3.349-0.115,4.982-0.346c1.932-0.293,3.834-0.676,5.715-1.125
					c0.57-0.139,1.137-0.303,1.703-0.449c1.326-0.369,2.656-0.752,3.971-1.184c0.574-0.203,1.176-0.412,1.762-0.617
					c1.334-0.496,2.669-1.021,3.994-1.59c0.459-0.197,0.939-0.394,1.392-0.601c1.762-0.812,3.512-1.657,5.244-2.588
					c-0.57-2.908-1.066-5.846-1.396-8.803c-0.061-0.584-0.082-1.188-0.135-1.766c-0.834-9.688-0.461-19.722,0.94-29.421
					c0.66-4.493,1.523-8.901,2.607-13.17c-0.006,0.015-0.025,0.031-0.051,0.039c-5.062,3.459-9.845,6.099-14.261,7.812
					c-0.262,0.096-0.534,0.188-0.772,0.285c-0.941,0.334-1.848,0.631-2.744,0.883c-0.303,0.086-0.592,0.15-0.898,0.223
					c-2.577,0.65-4.983,0.902-7.188,0.734c-0.477-0.043-0.951-0.07-1.414-0.152c-0.506-0.092-1-0.213-1.473-0.346
					c-0.513-0.146-0.994-0.322-1.457-0.506c-0.42-0.168-0.84-0.353-1.236-0.564c-0.559-0.305-1.084-0.688-1.6-1.088
					c-0.259-0.201-0.533-0.352-0.773-0.588c-0.732-0.664-1.387-1.418-2-2.281c-0.199-0.293-0.365-0.631-0.561-0.951
					c-0.41-0.668-0.804-1.373-1.152-2.161c-0.18-0.406-0.338-0.82-0.502-1.263c-0.32-0.836-0.609-1.746-0.848-2.703
					c-0.105-0.434-0.24-0.856-0.347-1.317c-0.311-1.451-0.582-2.998-0.742-4.691c-0.118-1.166-0.17-2.447-0.174-3.778
					c0.008-0.337,0.008-0.689-0.004-1.046c0.031-1.155,0.078-2.36,0.156-3.646c0.016-0.227,0.024-0.441,0.045-0.674
					c0.25-3.379,0.707-7.117,1.328-11.131c0.66-4.269,1.485-8.855,2.438-13.672c0.859-4.355,1.791-8.902,2.779-13.572
					c0.021-0.125,0.049-0.246,0.07-0.373c0.01-0.043,0.021-0.074,0.028-0.109c2.429-11.584,5.062-23.867,7.136-35.953
					c0.715-4.112,1.346-8.182,1.908-12.201c0.516-3.885,0.967-7.69,1.282-11.411c0.011-0.019,0.011-0.058,0.004-0.089
					c0.164-1.94,0.289-3.86,0.382-5.754c0.032-0.534,0.047-1.063,0.063-1.588c0.066-1.414,0.103-2.785,0.115-4.149
					c-0.01-0.593,0.004-1.185-0.006-1.752c0.01-1.365-0.029-2.681-0.09-3.998c-0.029-0.498-0.033-0.992-0.056-1.479
					c-0.104-1.766-0.252-3.485-0.447-5.154c-0.012-0.045-0.014-0.069-0.02-0.108c-0.201-1.601-0.457-3.131-0.76-4.633
					c-0.092-0.463-0.211-0.922-0.318-1.377c-0.244-1.054-0.506-2.091-0.807-3.093c-0.148-0.479-0.308-0.975-0.455-1.446
					c-0.336-0.974-0.707-1.9-1.101-2.797c-0.178-0.4-0.342-0.806-0.518-1.201c-0.598-1.236-1.25-2.445-1.986-3.539
					C636.57,453.539,623.287,437.938,597.93,433.605z M414.066,407.26l39.979,24.463c18.951-11,61.5-70.771,61.5-70.771
					c0.346-0.152,0.699-0.26,1.062-0.354c0.133-0.029,0.258-0.047,0.391-0.072c0.236-0.053,0.473-0.102,0.715-0.137
					c0.158-0.021,0.32-0.025,0.486-0.029c0.227-0.016,0.438-0.033,0.664-0.035c0.178,0.01,0.36,0.025,0.555,0.039
					c0.197,0.016,0.408,0.035,0.621,0.059c0.193,0.037,0.393,0.086,0.6,0.127c0.188,0.039,0.381,0.08,0.562,0.131
					c0.221,0.064,0.447,0.139,0.658,0.23c0.178,0.057,0.346,0.121,0.518,0.193c0.236,0.102,0.463,0.217,0.695,0.342
					c0.151,0.084,0.309,0.166,0.463,0.262c0.246,0.137,0.475,0.307,0.711,0.461c0.139,0.111,0.273,0.195,0.404,0.312
					c0.254,0.189,0.485,0.398,0.735,0.617c0.117,0.113,0.229,0.229,0.357,0.352c0.242,0.24,0.494,0.502,0.723,0.789
					c0.104,0.105,0.191,0.232,0.285,0.338c0.246,0.318,0.492,0.639,0.738,1.002c0.062,0.109,0.137,0.232,0.211,0.338
					c0.242,0.389,0.479,0.785,0.711,1.225c0.049,0.096,0.1,0.193,0.147,0.289c0.242,0.479,0.479,0.975,0.688,1.5
					c0.018,0.068,0.039,0.119,0.072,0.184c3.211,8.057,3.51,22.371-3.789,45.676c-0.004,0.002-0.004,0.002-0.004,0.002
					c-0.56,1.781-1.158,3.609-1.804,5.479c-0.02,0.059-0.039,0.116-0.051,0.149c-0.637,1.857-1.322,3.744-2.045,5.699
					c-0.035,0.084-0.074,0.188-0.102,0.287c-0.728,1.928-1.494,3.9-2.304,5.926c-0.057,0.129-0.106,0.25-0.149,0.367
					c-0.814,2.027-1.674,4.102-2.584,6.229c-0.058,0.125-0.123,0.265-0.164,0.396c-0.926,2.143-1.892,4.336-2.912,6.594
					c-0.039,0.09-0.092,0.203-0.135,0.297c-1.043,2.306-2.144,4.658-3.291,7.08c-0.006,0.006-0.008,0.015-0.008,0.015l-0.029,0.053
					c-1.06,2.227-2.137,4.465-3.295,6.783c-1.193,2.397-2.435,4.854-3.742,7.383c-1.594,2.635-3.047,5.176-4.498,7.713
					c-0.371,0.641-0.785,1.32-1.141,1.943c-0.345,0.61-0.689,1.225-1.021,1.836c-1.68,3.018-3.297,5.996-4.793,8.903
					c-0.01,0.037-0.033,0.074-0.051,0.099c-0.002,0.012-0.01,0.024-0.016,0.03c-1.687,3.271-3.242,6.459-4.691,9.564
					c-0.076,0.16-0.146,0.322-0.213,0.479c-0.508,1.062-0.912,2.076-1.373,3.128c-0.853,1.891-1.729,3.809-2.49,5.649
					c-0.035,0.094-0.082,0.183-0.113,0.271c-2.469,5.967-4.493,11.629-6.129,16.989c-0.012,0.017-0.012,0.029-0.016,0.047
					c-2.266,7.433-3.787,14.304-4.689,20.664c-0.008,0.019-0.01,0.023-0.008,0.039c-0.901,6.293-1.199,12.076-1.022,17.422
					c0.006,0.109,0.006,0.228,0.01,0.343c0.125,3.543,0.451,6.885,0.951,10.047c0,0,0,0,0,0.004
					c0.606,3.881,1.463,7.49,2.514,10.856c1.076,3.49,2.35,6.728,3.725,9.707l0.015,0.027c2.531,5.455,5.438,10.143,8.207,14.223
					c14.459,21.281,34.17,26.886,49.627,29.412c1.305,0.215,2.672,0.31,4.043,0.34c0.434-0.002,0.871-0.022,1.309-0.024
					c0.982-0.021,1.979-0.072,3.006-0.168c0.486-0.051,0.998-0.107,1.5-0.178c1.039-0.146,2.089-0.326,3.15-0.548
					c0.455-0.098,0.918-0.17,1.394-0.284c1.473-0.349,2.981-0.742,4.512-1.226c0.035-0.02,0.076-0.028,0.121-0.031
					c1.592-0.506,3.223-1.096,4.879-1.733c0.445-0.174,0.893-0.371,1.346-0.551c1.209-0.494,2.441-1.019,3.685-1.582
					c0.53-0.232,1.057-0.48,1.6-0.724c1.24-0.573,2.477-1.186,3.731-1.819c0.476-0.242,0.947-0.468,1.414-0.722
					c1.681-0.862,3.345-1.771,5.043-2.713c0.035-0.021,0.072-0.039,0.113-0.057c-0.102-2.188-0.143-4.402-0.047-6.656
					c0.053-1.652,0.291-3.354,0.404-5.031c0.879-12.008,3.092-24.385,5.561-36.504c0.865-4.233,1.746-8.42,2.584-12.561
					l-0.385-0.244c-6.277,3.93-12.379,7.211-18.213,9.389c-0.078,0.039-0.185,0.07-0.269,0.107
					c-1.858,0.686-3.682,1.244-5.473,1.697c-0.215,0.047-0.432,0.104-0.635,0.157c-1.736,0.396-3.443,0.668-5.113,0.812
					c-0.24,0.033-0.484,0.049-0.736,0.063c-1.647,0.113-3.274,0.093-4.866-0.084c-0.228-0.02-0.455-0.059-0.685-0.09
					c-1.602-0.217-3.174-0.559-4.713-1.098c-0.146-0.041-0.303-0.127-0.455-0.185c-1.602-0.596-3.17-1.327-4.678-2.301
					c-1.539-0.988-2.922-2.002-4.168-3.024c-0.492-0.398-0.871-0.806-1.302-1.201c-0.711-0.646-1.42-1.275-2.016-1.927
					c-0.477-0.522-0.871-1.057-1.283-1.581c-0.438-0.548-0.887-1.099-1.254-1.652c-0.395-0.617-0.733-1.24-1.067-1.875
					c-0.269-0.49-0.517-0.982-0.732-1.49c-0.311-0.688-0.562-1.412-0.783-2.123c-0.143-0.447-0.262-0.895-0.371-1.34
					c-0.196-0.807-0.336-1.611-0.442-2.438c-0.047-0.369-0.074-0.761-0.097-1.128c-0.069-0.922-0.112-1.846-0.094-2.797
					c0.019-0.266,0.043-0.543,0.058-0.815c0.062-1.072,0.161-2.168,0.338-3.295c-0.002,0-0.002-0.004-0.002-0.004l0.004-0.029
					c0.311-1.955,0.795-4.004,1.414-6.103c0.047-0.147,0.088-0.291,0.125-0.446c0.891-2.927,2.021-6.025,3.393-9.281
					c0.646-1.504,1.309-3.043,2.025-4.625c0.096-0.193,0.186-0.396,0.274-0.592c1.104-2.431,2.312-4.933,3.578-7.545
					c0.013-0.021,0.025-0.049,0.031-0.07l0.004-0.01l0.039-0.068c1.773-3.637,3.674-7.461,5.666-11.477
					c0.18-0.363,0.357-0.752,0.541-1.119c1.457-2.947,2.928-5.916,4.443-9.103c1.084-2.254,2.071-4.436,3.092-6.651
					c7.627-16.517,13.473-31.599,17.803-45.328c1.146-3.609,2.185-7.141,3.121-10.555c0.006-0.009,0.006-0.009,0.014-0.021
					c-0.004-0.004-0.004-0.004,0-0.014c0.938-3.478,1.832-6.875,2.574-10.158c0.807-3.545,1.484-6.951,2.062-10.277
					c0.119-0.68,0.228-1.338,0.343-2.014c1.09-6.518,1.776-12.656,2.088-18.389c0.028-0.588,0.059-1.168,0.08-1.748
					c0.235-5.641,0.121-10.922-0.297-15.836c-0.043-0.504-0.097-1.01-0.146-1.518c-0.488-4.818-1.268-9.275-2.311-13.391
					c-0.109-0.439-0.228-0.885-0.345-1.305c-1.073-4.051-2.403-7.736-3.938-11.111c-0.178-0.383-0.342-0.752-0.525-1.109
					c-1.549-3.318-3.297-6.285-5.186-8.977c-0.219-0.32-0.451-0.625-0.672-0.928c-0.939-1.293-1.924-2.553-2.939-3.717
					c-1.012-1.168-2.063-2.236-3.141-3.258c-0.26-0.248-0.515-0.498-0.777-0.74c-1.059-0.98-2.131-1.912-3.223-2.766
					c-0.013-0.006-0.013-0.023-0.033-0.033c-1.104-0.85-2.236-1.619-3.363-2.355c-0.282-0.182-0.557-0.357-0.842-0.529
					c-1.125-0.703-2.248-1.369-3.379-1.941c-4.529-2.336-8.961-3.834-13.258-4.672c-30.092-5.807-54.066,21.809-67.787,38.693
					 M828.59,629.961c2.314,1.361,4.437,3.211,6.365,5.527c0.236,0.289,0.453,0.588,0.678,0.883c0.701,0.928,1.396,1.922,2.06,2.992
					c0.225,0.379,0.469,0.756,0.696,1.155c0.824,1.427,1.599,2.937,2.322,4.604c0.355,0.789,0.648,1.674,0.922,2.619
					c0.086,0.287,0.154,0.608,0.244,0.906c0.191,0.698,0.353,1.438,0.51,2.178c0.074,0.371,0.14,0.746,0.205,1.1
					c0.158,0.84,0.285,1.715,0.396,2.637c0.051,0.304,0.088,0.597,0.129,0.923c0.15,1.26,0.27,2.565,0.373,3.952
					c0.004,0.091,0.004,0.191,0.01,0.263c0.098,1.307,0.148,2.645,0.197,3.99c0.022,0.377,0.02,0.778,0.037,1.163
					c0.016,1.146,0.045,2.33,0.041,3.525c0,0.394,0.004,0.789-0.002,1.189c-0.015,1.399-0.045,2.84-0.068,4.312
					c-0.004,0.152-0.008,0.316-0.021,0.482c-0.039,1.729-0.121,3.508-0.203,5.315c-0.187,3.804-0.463,7.734-0.808,11.707
					c0.008,0.008-0.004,0.019-0.01,0.027l0.006,0.012c-0.268,3.082-0.588,6.187-0.916,9.283c-0.42,3.924-0.881,7.838-1.375,11.703
					l-0.004,0.059c-0.004,0.025-0.008,0.058-0.01,0.078c-0.512,3.92-1.043,7.724-1.576,11.437c-0.061,0.356-0.121,0.762-0.174,1.131
					c0,0.049,0.004,0.094-0.01,0.146c-0.295,1.992-0.593,3.938-0.894,5.83c-0.004,0.103-0.024,0.191-0.039,0.275
					c-0.602,3.854-1.205,7.473-1.77,10.764c-0.021,0.113-0.027,0.244-0.056,0.348c-0.562,3.24-1.082,6.144-1.541,8.654
					c-0.028,0.121-0.047,0.254-0.069,0.379c-0.445,2.369-0.832,4.34-1.144,5.873c-0.028,0.178-0.059,0.355-0.098,0.517
					c-0.146,0.682-0.262,1.299-0.369,1.754c-2.443,11.078-3.596,20.121-6.762,20.803c-3.156,0.68-7.267-8.225-6.408-22.875
					c-0.023-0.369-0.041-0.85-0.029-1.42c0-0.172,0.006-0.408,0.021-0.594c0.006-0.435,0.022-0.861,0.053-1.379
					c0.012-0.242,0.029-0.525,0.07-0.771c0.026-0.562,0.077-1.119,0.12-1.754c0.013-0.207,0.039-0.449,0.062-0.656
					c0.557-6.606,1.744-16.774,2.393-27.68c0.009-0.014,0.019-0.021,0.017-0.035c0.002-0.008-0.004-0.039-0.008-0.057
					c0.196-3.127,0.342-6.302,0.401-9.472c0.025-0.713,0.021-1.418,0.035-2.11c0.004-0.011,0.01-0.021,0.01-0.021
					c0.006-0.1-0.006-0.205-0.004-0.297c-0.006-0.018,0-0.027,0.01-0.033c0.025-3.524-0.024-6.987-0.225-10.342
					c0.01-0.023-0.008-0.045-0.004-0.064c0-0.021,0.004-0.024-0.004-0.043c-0.211-3.575-0.574-6.993-1.146-10.168
					c-0.021-0.159-0.061-0.309-0.092-0.465c-0.119-0.67-0.248-1.324-0.389-1.965c-0.129-0.541-0.252-1.07-0.385-1.592
					c-0.021-0.058-0.037-0.115-0.052-0.156c-0.127-0.486-0.256-0.961-0.396-1.428c-0.217-0.721-0.445-1.43-0.701-2.115
					c-0.195-0.541-0.391-1.072-0.629-1.594c-0.164-0.412-0.342-0.797-0.533-1.176c-0.352-0.718-0.719-1.392-1.115-2.019
					c-0.186-0.293-0.383-0.553-0.565-0.815c-0.338-0.488-0.697-0.935-1.066-1.355c-0.188-0.197-0.354-0.412-0.545-0.609
					c-0.529-0.516-1.09-0.971-1.686-1.383c-0.226-0.141-0.441-0.283-0.673-0.432c-0.625-0.377-1.299-0.709-1.995-0.949
					c-0.191-0.063-0.377-0.096-0.568-0.15c-0.635-0.18-1.318-0.323-2.006-0.385c-0.23-0.033-0.435-0.057-0.668-0.078
					c-0.849-0.043-1.728,0.004-2.662,0.121c-0.264,0.023-0.537,0.082-0.803,0.14c-0.992,0.172-1.984,0.391-3.08,0.747
					c0.645-2.235,1.397-4.604,2.293-7.188c0.465-1.244,0.778-2.398,1.186-3.607c2.871-8.77,4.875-16.655,5.937-23.754
					c0.571-3.746,0.854-7.256,0.92-10.617c0-0.008,0-0.008,0-0.008c1.551-0.371,3.059-0.6,4.524-0.737
					c0.142-0.002,0.287-0.009,0.427-0.039c2.955-0.195,5.774,0.114,8.381,0.942c0.137,0.033,0.256,0.084,0.389,0.144
					c1.123,0.367,2.219,0.864,3.264,1.438C828.164,629.719,828.383,629.832,828.59,629.961z M842.611,691.436
					c-2.767,1.482-5.636,2.875-8.492,4.263c-0.646,0.312-1.258,0.646-1.902,0.942l-0.227,0.104c0.74-0.33,1.449-0.662,2.17-1.017
					C837.02,694.35,839.854,692.904,842.611,691.436z M847.979,729.381c18.554,10.732,59.451,33.568,62.8,28.367
					c3.346-5.197-34.404-32.939-51.859-45.377c-3.012,1.975-6.104,3.979-9.35,6.018
					C849.055,722.193,848.514,725.836,847.979,729.381z M290.812,347.428c0,0-7.523,2.943-8.463,3.146
					c-0.936,0.203-4.154,6.451-4.154,6.451l-0.502,3.707l-0.988,4.459l-0.672,4.342L476.66,495.891
					c1.947-4.282,4.012-8.649,6.375-13.207c2.149-4.172,4.565-8.491,7.084-12.875L294.258,341.176L290.812,347.428z
					 M539.029,535.184l36.219,22.812c2.967-1.719,6.006-3.578,9.156-5.688c1.119-0.733,2.262-1.553,3.393-2.33
					c0.906-5.153,1.615-10.084,2.068-14.668l-35.797-23.504c-2.847,3.039-5.925,6.604-9.273,10.652
					C542.525,527.115,540.586,531.35,539.029,535.184z M746.875,660.676c1.117-1.041,3.104-2.707,5.572-4.733
					c0.819-3.101,1.521-5.604,1.994-7.054c0.592-1.129,0.237-3.733-0.791-6.028l-7.408-4.871c-2.869-0.035-7.021,1.096-13.226,5.426
					c-1.362,7.426-0.69,11.688,0.521,14.277l7.553,4.76C743.596,662.436,746.082,661.668,746.875,660.676z M799.045,695.09
					c0.238,0.267,2.387,0.969,6.49,0.375c1.82-0.242,3.93-0.74,6.223-1.387c-0.096-0.623-0.172-1.279-0.285-1.859
					c-1.073-6.688-3.6-10.141-4.075-10.137c-0.23-0.037-0.552-0.85-5.058,0.844c-1.215,0.506-2.688,1.293-4.35,2.301
					c-0.226,1.916-0.33,3.58-0.273,4.91C798.049,694.92,798.904,694.893,799.045,695.09z"/>
			</g>
			<g>
				<g>
					<g>
						<path fill="#212121" d="M293.066,315.518c-0.365-2.246-1.6-2.189-2.904-3.754c-1.148-1.398-1.809-3.24-3.168-4.441
							c-3.322-2.916-3.408-7.537-4.621-11.617c-0.574-1.934-1.154-3.863-1.74-5.793c-0.127-0.43-3.283,0.674-3.656,0.506
							l-0.139-0.246l-0.311-0.125c-1.979,0.127-3.484-0.207-5.396-0.924c-2.211-0.826-1.768,0.377-3.492,0.98
							c-0.809,0.279-1.816-0.076-2.672,0.207c-1.469,0.484-2.498,1.773-3.869,2.436c-1.295,0.627-2.652,0.592-4.068,0.531
							c-1.648-0.074-3.855-0.096-3.816,2.318c-0.672,0.107-0.996-0.324-1.02-1.098c0-0.039-4.168,0.689-4.307,0.709
							c-0.695,0.111-1.451,0.32-2.166,0.217c-1.238-0.186-1.93-1.41-3.219-1.508c-1.912-0.139-4.107,0.832-6.016,1.025
							c-1.543,0.148-1.922,0.346-3.059-0.457c-0.623-0.438-1.037-1.109-1.758-1.477c0.15,0.078-1.033,1.119-1.23,1.186
							c-0.533,0.178-0.994-0.021-1.518-0.15c-1.121-0.289-1.965-1.082-3.162-0.963c-0.141-0.375-0.213-0.771-0.291-1.164
							l-4.414-19.252l-0.895-0.182l-0.738,0.137l-3.551,0.898l-8.818,1.996l-11.77,2.525l-0.355,0.238l0.119,0.74l5.199,26.234
							l1.701,9.979l2.199,11.32l-0.42,0.82l-0.326,0.088l-8.002,1.629l-7.967,1.484l-8.969,1.682l-7.01,1.143l0.094,0.334
							l0.738,1.199l0.527,0.426l0.068,0.26l0.676,0.172l0.084,0.047l0.342-0.025l0.797,0.348l0.564,0.551l0.309,0.621
							c1.004,2.055,4.404,3.227,6.195,4.119c2.463,1.229,4.986,2.35,7.312,3.928c2.863,1.945,3.445,5.375,5.248,8.246
							c1.248,2.002,2.709,2.936,4.742,3.664c3.379,1.217,9.965,5.01,12.111,0.494c0.943-1.979,0.807-4.529,2.121-6.305
							c1.053-1.443,2.695-1.818,4.264-2.275c1.916-0.572,4.02-1.293,6.055-0.867c1.736,0.365,3.139,1.672,4.689,2.574
							c2.434,1.422,4.463,2.57,6.283,5c2.566,3.422,4.844,5.938,8.008,8.637c1.307,1.111,2.076,1.812,3.631,2.469
							c1.582,0.67,2.172,1.357,2.047,3.352c1.125,0.461,0.873,1.635,1.451,2.564c0.699,1.145,2.07,1.928,2.916,3.021
							c0.588,0.762,1.158,2.283,1.938,2.768c0.947,0.592,2.904,0.164,4.006,0.371c2.119,0.4,4.699,1.215,6.777,0.922
							c1.43-0.203,2.754-0.775,4.229-0.359c1.178,0.328,1.912,1.227,3.186,0.756c-0.188-1.055,1.047-1.264,1.705-1.723
							c-0.061-0.357-0.064-0.381-0.271-0.672c-0.18,0.209-0.455,0.451-0.594,0.693c-0.01-0.186-0.02-0.375-0.027-0.549
							c-0.072,0.25-0.229,0.457-0.33,0.689c-0.303-0.178-0.514-0.361-0.699-0.693c0.188-0.035,0.408-0.17,0.605-0.213
							c-1.893-0.736-7.283-10.836-4.967-12.236c-2.123,1.283-2.137,0.186-3.645-1.047c1.068,0.402,1.9,0.67,2.994,0.361
							c-0.047,0.176-0.117,0.33-0.232,0.461c1.588-1.832,1.357-4.531-0.834-6.008c0.773-0.887,1.754-0.059,2.453-0.578
							c0.678-0.504,0.895-2.205,0.725-3.029c-0.146,0.383-0.584,0.707-0.768,1.07c-2.055-1.102,1.256-1.916,1.398-2.793
							c0.043,0.299,0.213,0.6,0.268,0.877c0.822-0.922,1.008-2.389,0.412-3.596c1.174,0.84,3.145,0.922,3.436-0.895
							c-0.338,0.014-0.744-0.234-1.113-0.166c-0.355-0.869-1.119-1.219-1.627-1.947c0.906-0.168,1.666,0.828,2.484,0.199
							c-0.209-0.301-0.297-0.74-0.584-1.023c0.982,0.793,1.986-0.311,2.832,0.559c0.256-0.191,0.707-0.271,0.939-0.504
							c-0.129,0.662-0.467,1.209-0.908,1.668c1.139-0.873,2.361-1.734,3.236-2.934c-0.309,0.254-0.715,0.354-1.033,0.557
							c0.33-0.209,0.971-1.643,1.434-2.035c0.855-0.715,1.904-1.113,2.705-1.912c0.941-0.934,0.967-1.779,1.404-3.021
							c0.436-1.252,1.729-2.158,1.748-3.551c-1.043-0.465-1.811-1.73-2.297-2.799c0.418-0.059,0.73-0.318,1.201-0.217
							c0.174-2.479,1.588-0.008,1.768,1.07c0.676-0.242,1.342-0.545,2.049-0.672c-0.752,0.619-1.457,1.35-1.695,2.406
							c0.584-1.547,1.789-2.607,3.016-3.488c0.473-0.334,3.949-2.719,4.443-2.299c-0.461-0.393-0.91-0.787-1.363-1.178
							c0.268-1.105,1.006-1.965,1.242-3.002c0.324-1.414-0.543-1.873-0.961-3.131c-0.639-1.959,0.125-4.158-0.152-6.205
							C293.191,316.396,293.139,315.955,293.066,315.518z"/>
					</g>
					<path fill="#F4CD72" d="M272.152,382.76c-1.041,0-1.84-0.396-2.422-0.686c-0.201-0.102-0.408-0.217-0.65-0.285
						c-0.537-0.15-1.172-0.016-1.992,0.166c-0.438,0.094-0.879,0.188-1.328,0.252c-1.93,0.273-4.131-0.199-5.996-0.617
						c-0.52-0.115-1.025-0.23-1.506-0.32c-0.141-0.025-0.303-0.025-0.484-0.023l-1.307,0.021c-0.943,0-2.037-0.08-2.979-0.668
						c-0.979-0.607-1.553-1.629-2.059-2.529c-0.16-0.283-0.305-0.561-0.459-0.762c-0.25-0.326-0.645-0.672-1.061-1.039
						c-0.672-0.594-1.434-1.268-1.994-2.186c-0.373-0.6-0.535-1.199-0.654-1.639c-0.018-0.061-0.031-0.121-0.047-0.18
						c-0.703-0.422-1.123-1.205-1.07-2.041c0.039-0.615-0.029-0.814-0.039-0.838c0.002,0.002,0,0.002,0,0.002
						c-0.012,0-0.16-0.121-0.66-0.332c-1.766-0.746-2.732-1.57-3.957-2.613l-0.244-0.209c-3.152-2.689-5.57-5.295-8.346-8.996
						c-1.504-2.006-3.15-2.969-5.434-4.301l-0.193-0.113c-0.51-0.297-1.01-0.635-1.506-0.973c-0.895-0.607-1.738-1.184-2.521-1.348
						c-1.223-0.26-2.934,0.207-4.516,0.688l-0.836,0.248c-1.361,0.391-2.219,0.662-2.717,1.346
						c-0.479,0.645-0.699,1.656-0.932,2.729c-0.217,1.006-0.467,2.145-0.979,3.219c-1.047,2.207-3.039,3.42-5.609,3.42
						c-2.547,0-5.303-1.152-7.518-2.078c-0.637-0.268-1.227-0.516-1.738-0.699c-1.922-0.689-4.125-1.771-5.875-4.578
						c-0.676-1.074-1.178-2.17-1.66-3.23c-0.836-1.828-1.557-3.406-2.953-4.355c-1.73-1.176-3.594-2.084-5.566-3.045l-1.488-0.73
						c-0.312-0.156-0.678-0.32-1.068-0.498c-2.094-0.947-4.961-2.244-6.131-4.633l0,0c0,0-0.059-0.119-0.127-0.252
						c-0.26-0.014-0.516-0.072-0.754-0.174l-0.441-0.111c-0.6-0.152-1.098-0.543-1.391-1.066l-0.053-0.043
						c-0.197-0.158-0.367-0.35-0.498-0.564l-0.738-1.201c-0.109-0.178-0.193-0.369-0.25-0.57l-0.092-0.334
						c-0.168-0.605-0.07-1.256,0.27-1.787c0.34-0.531,0.891-0.895,1.512-0.994l7.01-1.145l23.584-4.521l-1.92-9.889l-1.713-10.027
						l-5.32-26.994c-0.139-0.855,0.234-1.713,0.955-2.197l0.355-0.238c0.234-0.156,0.494-0.268,0.77-0.326l20.564-4.518l4.375-1.053
						c0.279-0.053,0.568-0.051,0.85,0.008l0.895,0.184c0.852,0.174,1.523,0.83,1.717,1.678l4.344,18.938
						c0.436,0.143,0.814,0.318,1.135,0.469c0.248,0.115,0.498,0.246,0.777,0.316l0.229,0.062c0.01-0.01,0.02-0.018,0.029-0.027
						c0.58-1.037,1.883-1.439,2.949-0.895c0.729,0.373,1.236,0.877,1.605,1.248c0.135,0.135,0.264,0.279,0.42,0.389
						c0.234,0.166,0.322,0.201,0.324,0.201c0.154-0.012,0.357-0.041,0.613-0.07l0.629-0.066c0.605-0.062,1.33-0.244,2.098-0.438
						c1.309-0.326,2.836-0.691,4.295-0.594c1.283,0.098,2.195,0.736,2.801,1.16c0.193,0.135,0.486,0.34,0.59,0.367
						c0.396,0.062,0.67-0.066,0.959-0.121l1.318-0.229c3.51-0.602,3.59-0.602,3.852-0.602c0.041,0,0.082,0.002,0.123,0.004
						c1.199-1.113,2.803-1.244,3.922-1.244c0.307,0,0.613,0.01,0.902,0.023c0.344,0.014,0.691,0.027,1.035,0.027
						c0.883,0,1.471-0.102,1.965-0.34c0.396-0.191,0.83-0.523,1.287-0.873c0.783-0.602,1.67-1.283,2.852-1.674
						c0.928-0.307,1.574-0.234,2.146-0.213l0.377,0.01c0.332-0.066,0.414-0.139,0.635-0.332c0.596-0.527,1.982-1.555,4.48-0.623
						c1.836,0.688,2.988,0.887,4.477,0.787c0.332-0.021,0.668,0.033,0.979,0.158l0.254,0.105c0.123-0.031,0.256-0.064,0.391-0.098
						c1.016-0.244,1.729-0.404,2.34-0.404c1.412,0,2.182,0.908,2.414,1.688c0.582,1.922,1.164,3.855,1.74,5.791
						c0.326,1.102,0.576,2.234,0.824,3.367c0.648,2.967,1.211,5.529,3.133,7.217c1.062,0.939,1.75,2.084,2.355,3.094
						c0.357,0.596,0.695,1.158,1.062,1.605c0.289,0.346,0.594,0.586,0.947,0.863c0.867,0.682,2.055,1.617,2.434,3.945
						c0.059,0.346,0.104,0.701,0.154,1.088l0.047,0.359c0.148,1.104,0.064,2.186-0.012,3.141c-0.078,1.012-0.154,1.969,0.074,2.67
						c0.066,0.203,0.184,0.404,0.332,0.656c0.406,0.701,1.09,1.875,0.68,3.658c-0.166,0.734-0.463,1.34-0.738,1.877l0.137,0.115
						c0.932,0.795,1.045,2.195,0.252,3.129c-0.457,0.535-1.131,0.805-1.76,0.781c-0.658,0.297-2.076,1.178-3.096,1.895
						c-0.309,0.223-0.629,0.467-0.932,0.734c-0.078,0.088-0.164,0.172-0.258,0.248c-0.016,0.016-0.035,0.029-0.053,0.043
						c-0.471,0.469-0.789,0.938-0.975,1.432c-0.234,0.619-0.717,1.076-1.295,1.293c-0.271,0.619-0.631,1.129-0.932,1.555
						c-0.223,0.318-0.453,0.646-0.527,0.859c-0.098,0.279-0.172,0.527-0.24,0.762c-0.26,0.893-0.586,2.002-1.697,3.105
						c-0.631,0.629-1.307,1.043-1.904,1.408c-0.191,0.117-0.383,0.232-0.568,0.355c0.023,0.473-0.105,0.951-0.402,1.359
						c-0.969,1.328-2.207,2.268-3.299,3.1l-0.381,0.289c-0.398,0.307-0.871,0.457-1.34,0.459c-0.453,1.404-1.586,2.381-3.035,2.623
						c-0.193,0.861-0.596,1.67-1.191,2.34c-0.09,0.102-0.188,0.191-0.293,0.273c-0.049,1.309-0.447,3.004-1.664,3.906
						c-0.021,0.016-0.043,0.031-0.062,0.045c0.148,0.41,0.256,0.836,0.314,1.277c0.129,0.943,0.027,1.902-0.283,2.801
						c0.365,0.814,0.199,1.76-0.387,2.402c-0.016,1.846,2.803,7.404,4.191,8.656c0.076-0.004,0.152-0.004,0.225-0.002
						c0.684,0.031,1.371,0.314,1.768,0.873c0.424,0.6,0.539,0.936,0.648,1.584c0.145,0.848-0.215,1.703-0.92,2.193
						c-0.242,0.168-0.529,0.32-0.828,0.469c-0.182,0.68-0.68,1.256-1.375,1.512C273.145,382.668,272.646,382.76,272.152,382.76
						L272.152,382.76z M257.773,376.805c0.482,0,0.928,0.031,1.307,0.102c0.529,0.1,1.084,0.225,1.652,0.352
						c1.564,0.35,3.156,0.732,4.406,0.553c0.336-0.047,0.67-0.121,1.002-0.193c1.027-0.225,2.348-0.453,3.559-0.236
						c-1.883-2.619-3.674-6.535-4.102-9.104c-0.771-0.303-1.301-0.854-1.691-1.26c-0.186-0.193-0.395-0.416-0.672-0.643
						c-0.842-0.688-1.062-1.887-0.52-2.828c0.545-0.941,1.688-1.35,2.709-0.967c0.316,0.119,0.572,0.209,0.785,0.27
						c0.002-0.086-0.002-0.172-0.016-0.258c-0.066-0.5-0.367-0.943-0.869-1.281c-0.527-0.355-0.877-0.922-0.959-1.553
						c-0.084-0.631,0.109-1.268,0.527-1.748c0.293-0.334,0.729-0.711,1.336-0.949c-0.09-0.264-0.129-0.512-0.139-0.736
						c-0.08-1.662,1.264-2.557,2.068-3.092c0.098-0.066,0.199-0.129,0.289-0.191c0.15-0.266,0.355-0.496,0.598-0.676
						c-0.424-0.904-0.193-1.982,0.568-2.633c0.076-0.062,0.154-0.121,0.234-0.174c-0.359-0.6-0.418-1.34-0.148-1.992
						c0.287-0.697,0.908-1.199,1.648-1.336c0.127-0.023,0.443-0.053,0.592-0.055c0.018-0.021,0.035-0.043,0.055-0.064
						c0.703-0.789,1.848-0.959,2.74-0.459c0.018-0.002,0.033-0.006,0.049-0.008c0.582-0.082,1.164-0.092,1.639,0.018
						c0.203-0.102,0.42-0.172,0.639-0.207c0.041-0.045,0.084-0.09,0.127-0.131c0.082-0.121,0.172-0.279,0.268-0.439
						c0.365-0.609,0.74-1.24,1.262-1.68c0.471-0.393,0.975-0.709,1.48-1.02c0.445-0.273,0.83-0.508,1.092-0.77
						c0.291-0.289,0.357-0.488,0.568-1.209c0.09-0.303,0.186-0.627,0.309-0.979c0.275-0.791,0.727-1.434,1.09-1.949
						c0.029-0.041,0.061-0.086,0.094-0.133c-0.619-0.674-1.174-1.545-1.658-2.609c-0.293-0.639-0.264-1.375,0.072-1.988
						c0.299-0.543,0.807-0.934,1.398-1.084c0.688-1.27,1.898-1.352,2.203-1.352c1.1,0,1.906,0.688,2.467,1.506
						c0.303-0.248,0.611-0.482,0.924-0.707c0.84-0.592,1.557-1.057,2.166-1.422c-0.029-0.256-0.014-0.516,0.049-0.773
						c0.197-0.811,0.539-1.48,0.816-2.02c0.186-0.363,0.361-0.707,0.418-0.951c0.004-0.104-0.107-0.295-0.189-0.436
						c-0.211-0.361-0.496-0.854-0.713-1.504c-0.506-1.555-0.387-3.068-0.281-4.406c0.062-0.803,0.123-1.562,0.037-2.199
						l-0.049-0.381c-0.045-0.33-0.084-0.637-0.133-0.939c-0.102-0.627-0.156-0.668-0.799-1.174c-0.432-0.34-1.023-0.805-1.621-1.521
						c-0.586-0.713-1.023-1.443-1.449-2.152c-0.484-0.805-0.939-1.566-1.482-2.047c-3.016-2.645-3.824-6.34-4.537-9.6
						c-0.225-1.025-0.447-2.055-0.742-3.049c-0.4-1.342-0.801-2.684-1.205-4.023c-0.904,0.219-1.441,0.342-1.943,0.342
						c-0.314,0-0.746-0.086-1.033-0.215c-0.096-0.043-0.188-0.092-0.277-0.148c-1.793,0-3.342-0.307-5.436-1.092
						c-0.061-0.021-0.113-0.041-0.16-0.057c-0.439,0.369-0.988,0.764-1.82,1.055c-0.922,0.32-1.562,0.25-2.137,0.225l-0.387-0.012
						c-0.654,0.16-1.152,0.543-1.729,0.984c-0.586,0.449-1.25,0.961-2.057,1.348c-1.432,0.695-2.836,0.783-3.896,0.783
						c-0.406,0-0.814-0.014-1.229-0.031c-0.615-0.027-1.26-0.008-1.494,0.037c-0.064,1.049-0.85,2.092-1.885,2.256
						c-0.113,0.02-0.422,0.043-0.537,0.043c-0.752,0-1.543-0.287-2.131-0.889c-0.6,0.104-1.291,0.223-1.809,0.312
						c-0.504,0.086-0.863,0.146-0.904,0.15l-0.34,0.064c-0.658,0.125-1.57,0.277-2.439,0.148c-1.115-0.166-1.904-0.717-2.48-1.121
						c-0.197-0.137-0.49-0.344-0.594-0.369l-0.205-0.006c-0.756,0-1.686,0.232-2.67,0.479c-0.889,0.225-1.807,0.453-2.742,0.549
						l-0.562,0.061c-0.455,0.051-0.818,0.086-1.145,0.086c-1.01,0-1.863-0.299-2.854-1c-0.143-0.1-0.277-0.209-0.41-0.32
						c-0.281,0.18-0.506,0.293-0.605,0.326c-0.881,0.293-1.943,0.113-2.527-0.049l-0.217-0.057c-0.633-0.162-1.152-0.406-1.57-0.602
						c-0.326-0.15-0.662-0.309-0.814-0.309c-1,0.1-1.967-0.482-2.32-1.426c-0.172-0.459-0.279-0.941-0.375-1.426l-4.01-17.5
						l-2.881,0.732l-8.873,2.01l-10.07,2.162l4.951,24.98l1.713,10.037l2.188,11.271c0.096,0.484,0.023,0.988-0.199,1.43l-0.42,0.82
						c-0.287,0.562-0.799,0.977-1.408,1.137l-0.326,0.088l-8.129,1.66l-19.264,3.547l0.318,0.311
						c0.178,0.174,0.326,0.379,0.436,0.602l0.289,0.582c0.492,1.002,2.686,1.994,3.998,2.588c0.447,0.201,0.863,0.393,1.221,0.57
						l1.451,0.713c2.027,0.986,4.121,2.008,6.115,3.361c2.426,1.648,3.525,4.059,4.498,6.186c0.443,0.969,0.861,1.887,1.383,2.719
						c0.869,1.389,1.812,2.109,3.613,2.754c0.574,0.207,1.238,0.482,1.953,0.783c1.848,0.773,4.146,1.734,5.803,1.734
						c0.986,0,1.334-0.324,1.602-0.887c0.291-0.611,0.465-1.41,0.648-2.256c0.307-1.414,0.654-3.016,1.691-4.416
						c1.412-1.936,3.441-2.516,5.07-2.982l0.777-0.23c1.984-0.598,4.496-1.246,6.709-0.783c1.646,0.348,2.955,1.238,4.109,2.023
						c0.41,0.279,0.822,0.561,1.244,0.807l0.195,0.115c2.422,1.414,4.707,2.748,6.748,5.473c2.6,3.465,4.75,5.785,7.672,8.277
						l0.248,0.211c1.111,0.947,1.668,1.422,2.805,1.902c2.158,0.914,3.219,2.236,3.393,4.305c0.623,0.709,0.848,1.529,0.979,2.012
						c0.043,0.16,0.109,0.404,0.148,0.475c0.221,0.357,0.676,0.76,1.154,1.184c0.529,0.465,1.125,0.994,1.635,1.652
						c0.266,0.346,0.541,0.811,0.816,1.303c0.15,0.266,0.385,0.682,0.545,0.9c0.109,0.016,0.301,0.029,0.621,0.029L257.773,376.805
						L257.773,376.805z"/>
				</g>
			</g>
		</g>
	</g>
</g>
</svg>
